<svg xmlns="http://www.w3.org/2000/svg" viewBox="0 0 512 512">
  <defs>
    <linearGradient id="grad16" x1="0" y1="0" x2="1" y2="1">
      <stop offset="0%" stop-color="#dcfce7" stop-opacity="0.55"/>
      <stop offset="100%" stop-color="#14532d" stop-opacity="0.85"/>
    </linearGradient>
  </defs>
  <rect width="512" height="512" fill="#16a34a"/><rect width="512" height="512" fill="url(#grad16)"/><circle cx="256" cy="248" r="112" fill="rgba(255,255,255,0.2)"/><line x1="388.0" y1="248.0" x2="462.0" y2="248.0" stroke="rgba(255,255,255,0.25)" stroke-width="8"/><line x1="378.4" y1="297.4" x2="447.0" y2="325.2" stroke="rgba(255,255,255,0.25)" stroke-width="8"/><line x1="351.0" y1="339.7" x2="404.2" y2="391.1" stroke="rgba(255,255,255,0.25)" stroke-width="8"/><line x1="309.7" y1="368.6" x2="339.8" y2="436.2" stroke="rgba(255,255,255,0.25)" stroke-width="8"/><line x1="260.6" y1="379.9" x2="263.2" y2="453.9" stroke="rgba(255,255,255,0.25)" stroke-width="8"/><line x1="210.9" y1="372.0" x2="185.5" y2="441.6" stroke="rgba(255,255,255,0.25)" stroke-width="8"/><line x1="167.7" y1="346.1" x2="118.2" y2="401.1" stroke="rgba(255,255,255,0.25)" stroke-width="8"/><line x1="137.4" y1="305.9" x2="70.8" y2="338.3" stroke="rgba(255,255,255,0.25)" stroke-width="8"/><line x1="124.3" y1="257.2" x2="50.5" y2="262.4" stroke="rgba(255,255,255,0.25)" stroke-width="8"/><line x1="130.5" y1="207.2" x2="60.1" y2="184.3" stroke="rgba(255,255,255,0.25)" stroke-width="8"/><line x1="154.9" y1="163.2" x2="98.2" y2="115.6" stroke="rgba(255,255,255,0.25)" stroke-width="8"/><line x1="194.0" y1="131.5" x2="159.3" y2="66.1" stroke="rgba(255,255,255,0.25)" stroke-width="8"/><line x1="242.2" y1="116.7" x2="234.5" y2="43.1" stroke="rgba(255,255,255,0.25)" stroke-width="8"/><line x1="292.4" y1="121.1" x2="312.8" y2="50.0" stroke="rgba(255,255,255,0.25)" stroke-width="8"/><line x1="337.3" y1="144.0" x2="382.8" y2="85.7" stroke="rgba(255,255,255,0.25)" stroke-width="8"/><line x1="370.3" y1="182.0" x2="434.4" y2="145.0" stroke="rgba(255,255,255,0.25)" stroke-width="8"/><line x1="386.7" y1="229.6" x2="460.0" y2="219.3" stroke="rgba(255,255,255,0.25)" stroke-width="8"/>
  <rect x="24" y="408" width="190" height="68" rx="16" fill="rgba(0,0,0,0.22)"/>
  <text x="40" y="454" font-family="Arial, Helvetica, sans-serif" font-weight="800" font-size="42" letter-spacing="2" fill="rgba(255,255,255,0.92)">AFRO</text>
</svg>