<svg xmlns="http://www.w3.org/2000/svg" viewBox="0 0 512 512">
  <defs>
    <linearGradient id="grad6" x1="0" y1="0" x2="1" y2="1">
      <stop offset="0%" stop-color="#ecfccb" stop-opacity="0.55"/>
      <stop offset="100%" stop-color="#2f5213" stop-opacity="0.85"/>
    </linearGradient>
  </defs>
  <rect width="512" height="512" fill="#84cc16"/><rect width="512" height="512" fill="url(#grad6)"/><line x1="24" y1="0" x2="24" y2="512" stroke="rgba(255,255,255,0.16)" stroke-width="2"/><line x1="68" y1="0" x2="68" y2="512" stroke="rgba(255,255,255,0.16)" stroke-width="2"/><line x1="112" y1="0" x2="112" y2="512" stroke="rgba(255,255,255,0.16)" stroke-width="2"/><line x1="156" y1="0" x2="156" y2="512" stroke="rgba(255,255,255,0.16)" stroke-width="2"/><line x1="200" y1="0" x2="200" y2="512" stroke="rgba(255,255,255,0.16)" stroke-width="2"/><line x1="244" y1="0" x2="244" y2="512" stroke="rgba(255,255,255,0.16)" stroke-width="2"/><line x1="288" y1="0" x2="288" y2="512" stroke="rgba(255,255,255,0.16)" stroke-width="2"/><line x1="332" y1="0" x2="332" y2="512" stroke="rgba(255,255,255,0.16)" stroke-width="2"/><line x1="376" y1="0" x2="376" y2="512" stroke="rgba(255,255,255,0.16)" stroke-width="2"/><line x1="420" y1="0" x2="420" y2="512" stroke="rgba(255,255,255,0.16)" stroke-width="2"/><line x1="464" y1="0" x2="464" y2="512" stroke="rgba(255,255,255,0.16)" stroke-width="2"/><line x1="508" y1="0" x2="508" y2="512" stroke="rgba(255,255,255,0.16)" stroke-width="2"/><line x1="0" y1="24" x2="512" y2="24" stroke="rgba(255,255,255,0.16)" stroke-width="2"/><line x1="0" y1="68" x2="512" y2="68" stroke="rgba(255,255,255,0.16)" stroke-width="2"/><line x1="0" y1="112" x2="512" y2="112" stroke="rgba(255,255,255,0.16)" stroke-width="2"/><line x1="0" y1="156" x2="512" y2="156" stroke="rgba(255,255,255,0.16)" stroke-width="2"/><line x1="0" y1="200" x2="512" y2="200" stroke="rgba(255,255,255,0.16)" stroke-width="2"/><line x1="0" y1="244" x2="512" y2="244" stroke="rgba(255,255,255,0.16)" stroke-width="2"/><line x1="0" y1="288" x2="512" y2="288" stroke="rgba(255,255,255,0.16)" stroke-width="2"/><line x1="0" y1="332" x2="512" y2="332" stroke="rgba(255,255,255,0.16)" stroke-width="2"/><line x1="0" y1="376" x2="512" y2="376" stroke="rgba(255,255,255,0.16)" stroke-width="2"/><line x1="0" y1="420" x2="512" y2="420" stroke="rgba(255,255,255,0.16)" stroke-width="2"/><line x1="0" y1="464" x2="512" y2="464" stroke="rgba(255,255,255,0.16)" stroke-width="2"/><line x1="0" y1="508" x2="512" y2="508" stroke="rgba(255,255,255,0.16)" stroke-width="2"/>
  <rect x="24" y="408" width="190" height="68" rx="16" fill="rgba(0,0,0,0.22)"/>
  <text x="40" y="454" font-family="Arial, Helvetica, sans-serif" font-weight="800" font-size="42" letter-spacing="2" fill="rgba(255,255,255,0.92)">2000s</text>
</svg>