<svg xmlns="http://www.w3.org/2000/svg" viewBox="0 0 512 512">
  <defs>
    <linearGradient id="grad11" x1="0" y1="0" x2="1" y2="1">
      <stop offset="0%" stop-color="#fbcfe8" stop-opacity="0.55"/>
      <stop offset="100%" stop-color="#831843" stop-opacity="0.85"/>
    </linearGradient>
  </defs>
  <rect width="512" height="512" fill="#ec4899"/><rect width="512" height="512" fill="url(#grad11)"/><circle cx="256" cy="256" r="170" fill="rgba(255,255,255,0.16)"/><line x1="296.0" y1="256.0" x2="476.0" y2="256.0" stroke="rgba(255,255,255,0.24)" stroke-width="6"/><line x1="290.6" y1="276.0" x2="446.5" y2="366.0" stroke="rgba(255,255,255,0.24)" stroke-width="6"/><line x1="276.0" y1="290.6" x2="366.0" y2="446.5" stroke="rgba(255,255,255,0.24)" stroke-width="6"/><line x1="256.0" y1="296.0" x2="256.0" y2="476.0" stroke="rgba(255,255,255,0.24)" stroke-width="6"/><line x1="236.0" y1="290.6" x2="146.0" y2="446.5" stroke="rgba(255,255,255,0.24)" stroke-width="6"/><line x1="221.4" y1="276.0" x2="65.5" y2="366.0" stroke="rgba(255,255,255,0.24)" stroke-width="6"/><line x1="216.0" y1="256.0" x2="36.0" y2="256.0" stroke="rgba(255,255,255,0.24)" stroke-width="6"/><line x1="221.4" y1="236.0" x2="65.5" y2="146.0" stroke="rgba(255,255,255,0.24)" stroke-width="6"/><line x1="236.0" y1="221.4" x2="146.0" y2="65.5" stroke="rgba(255,255,255,0.24)" stroke-width="6"/><line x1="256.0" y1="216.0" x2="256.0" y2="36.0" stroke="rgba(255,255,255,0.24)" stroke-width="6"/><line x1="276.0" y1="221.4" x2="366.0" y2="65.5" stroke="rgba(255,255,255,0.24)" stroke-width="6"/><line x1="290.6" y1="236.0" x2="446.5" y2="146.0" stroke="rgba(255,255,255,0.24)" stroke-width="6"/>
  <rect x="24" y="408" width="190" height="68" rx="16" fill="rgba(0,0,0,0.22)"/>
  <text x="40" y="454" font-family="Arial, Helvetica, sans-serif" font-weight="800" font-size="42" letter-spacing="2" fill="rgba(255,255,255,0.92)">HYPE</text>
</svg>