<svg xmlns="http://www.w3.org/2000/svg" viewBox="0 0 512 512">
  <defs>
    <linearGradient id="grad10" x1="0" y1="0" x2="1" y2="1">
      <stop offset="0%" stop-color="#ffedd5" stop-opacity="0.55"/>
      <stop offset="100%" stop-color="#7c2d12" stop-opacity="0.85"/>
    </linearGradient>
  </defs>
  <rect width="512" height="512" fill="#f97316"/><rect width="512" height="512" fill="url(#grad10)"/><path d="M84 120 L256 172 L428 120 L428 154 L256 206 L84 154 Z" fill="rgba(255,255,255,0.2)"/><path d="M84 190 L256 242 L428 190 L428 224 L256 276 L84 224 Z" fill="rgba(255,255,255,0.2)"/><path d="M84 260 L256 312 L428 260 L428 294 L256 346 L84 294 Z" fill="rgba(255,255,255,0.2)"/><path d="M84 330 L256 382 L428 330 L428 364 L256 416 L84 364 Z" fill="rgba(255,255,255,0.2)"/>
  <rect x="24" y="408" width="190" height="68" rx="16" fill="rgba(0,0,0,0.22)"/>
  <text x="40" y="454" font-family="Arial, Helvetica, sans-serif" font-weight="800" font-size="42" letter-spacing="2" fill="rgba(255,255,255,0.92)">GYM</text>
</svg>