<svg xmlns="http://www.w3.org/2000/svg" viewBox="0 0 512 512">
  <defs>
    <linearGradient id="grad7" x1="0" y1="0" x2="1" y2="1">
      <stop offset="0%" stop-color="#ccfbf1" stop-opacity="0.55"/>
      <stop offset="100%" stop-color="#114a45" stop-opacity="0.85"/>
    </linearGradient>
  </defs>
  <rect width="512" height="512" fill="#14b8a6"/><rect width="512" height="512" fill="url(#grad7)"/><rect x="36" y="318" width="440" height="132" rx="16" fill="rgba(255,255,255,0.25)"/><rect x="50" y="330" width="30" height="108" rx="5" fill="rgba(255,255,255,0.76)"/><rect x="88" y="330" width="30" height="108" rx="5" fill="rgba(255,255,255,0.76)"/><rect x="126" y="330" width="30" height="108" rx="5" fill="rgba(255,255,255,0.76)"/><rect x="164" y="330" width="30" height="108" rx="5" fill="rgba(255,255,255,0.76)"/><rect x="202" y="330" width="30" height="108" rx="5" fill="rgba(255,255,255,0.76)"/><rect x="240" y="330" width="30" height="108" rx="5" fill="rgba(255,255,255,0.76)"/><rect x="278" y="330" width="30" height="108" rx="5" fill="rgba(255,255,255,0.76)"/><rect x="316" y="330" width="30" height="108" rx="5" fill="rgba(255,255,255,0.76)"/><rect x="354" y="330" width="30" height="108" rx="5" fill="rgba(255,255,255,0.76)"/><rect x="392" y="330" width="30" height="108" rx="5" fill="rgba(255,255,255,0.76)"/><rect x="430" y="330" width="30" height="108" rx="5" fill="rgba(255,255,255,0.76)"/>
  <rect x="24" y="408" width="190" height="68" rx="16" fill="rgba(0,0,0,0.22)"/>
  <text x="40" y="454" font-family="Arial, Helvetica, sans-serif" font-weight="800" font-size="42" letter-spacing="2" fill="rgba(255,255,255,0.92)">JAZZ</text>
</svg>