<svg xmlns="http://www.w3.org/2000/svg" viewBox="0 0 512 512">
  <defs>
    <linearGradient id="grad5" x1="0" y1="0" x2="1" y2="1">
      <stop offset="0%" stop-color="#ffd6e0" stop-opacity="0.55"/>
      <stop offset="100%" stop-color="#7a102f" stop-opacity="0.85"/>
    </linearGradient>
  </defs>
  <rect width="512" height="512" fill="#ff4d6d"/><rect width="512" height="512" fill="url(#grad5)"/><path d="M-20 160 C80 118,180 192,280 142 C360 104,440 180,540 144" stroke="rgba(255,255,255,0.36)" stroke-width="10" fill="none"/><path d="M-20 220 C80 178,180 252,280 202 C360 164,440 240,540 204" stroke="rgba(255,255,255,0.36)" stroke-width="10" fill="none"/><path d="M-20 280 C80 238,180 312,280 262 C360 224,440 300,540 264" stroke="rgba(255,255,255,0.36)" stroke-width="10" fill="none"/><path d="M-20 340 C80 298,180 372,280 322 C360 284,440 360,540 324" stroke="rgba(255,255,255,0.36)" stroke-width="10" fill="none"/>
  <rect x="24" y="408" width="190" height="68" rx="16" fill="rgba(0,0,0,0.22)"/>
  <text x="40" y="454" font-family="Arial, Helvetica, sans-serif" font-weight="800" font-size="42" letter-spacing="2" fill="rgba(255,255,255,0.92)">LATIN</text>
</svg>